<?xml version="1.0" encoding="utf-8"?>
<!-- Generator: Adobe Illustrator 18.0.0, SVG Export Plug-In . SVG Version: 6.00 Build 0)  -->
<!DOCTYPE svg PUBLIC "-//W3C//DTD SVG 1.1//EN" "http://www.w3.org/Graphics/SVG/1.1/DTD/svg11.dtd">
<svg version="1.1" xmlns="http://www.w3.org/2000/svg" xmlns:xlink="http://www.w3.org/1999/xlink" x="0px" y="0px"
	 viewBox="0 0 300 200" enable-background="new 0 0 300 200" xml:space="preserve">
<g id="Guides">
</g>
<g id="Blend_Modes" display="none">
	<path display="inline" fill="#DA727E" d="M138,85c0-10.8,4.6-20.5,12-27.3c-6.6-6-15.4-9.7-25-9.7c-20.4,0-37,16.6-37,37
		c0,20.4,16.6,37,37,37c9.6,0,18.4-3.7,25-9.7C142.6,105.5,138,95.8,138,85z"/>
	<path display="inline" fill="#3EC3D5" d="M175,48c-9.6,0-18.4,3.7-25,9.7c7.4,6.8,12,16.5,12,27.3c0,10.8-4.6,20.5-12,27.3
		c6.6,6,15.4,9.7,25,9.7c20.4,0,37-16.6,37-37C212,64.6,195.4,48,175,48z"/>
	<path display="inline" fill="#3C3E58" d="M162,85c0-10.8-4.6-20.5-12-27.3c-7.4,6.8-12,16.5-12,27.3c0,10.8,4.6,20.5,12,27.3
		C157.4,105.5,162,95.8,162,85z"/>
</g>
<g id="Captions" display="none">
	<rect x="110" y="118" display="inline" fill="#FF696B" width="80" height="4"/>
	<rect x="116" y="125" display="inline" fill="#FF696B" width="68" height="4"/>
	<path display="inline" fill="#52BAD5" d="M103,45v70h94V45H103z M169,59c3.4,0,6.2,2.8,6.2,6.2s-2.8,6.2-6.2,6.2
		c-3.4,0-6.2-2.8-6.2-6.2S165.6,59,169,59z M113.7,106L137,74.6l21.5,21l11.7-9.4l17.5,19.7H113.7z"/>
</g>
<g id="Pull_Quotes" display="none">
	<rect x="115" y="57" display="inline" fill="#00546B" width="71" height="7"/>
	<rect x="115" y="68" display="inline" fill="#00546B" width="75" height="7"/>
	<rect x="115" y="79" display="inline" fill="#00546B" width="48" height="7"/>
	<rect x="115" y="90" display="inline" fill="#00546B" width="66" height="7"/>
	<rect x="115" y="101" display="inline" fill="#00546B" width="39" height="7"/>
	<rect x="115" y="112" display="inline" fill="#00546B" width="63" height="7"/>
	<g display="inline">
		<path fill="#FF5454" d="M101,44l3.7,3.1c-2.2,1.2-4.7,4-5.3,6.5c0.3-0.1,0.8-0.2,1.4-0.2c2.6,0,4.6,2,4.6,4.9
			c0,2.9-2.4,5.4-5.4,5.4c-3.2,0-6-2.5-6-6.9C94,51.5,96.8,47,101,44z M114.9,44l3.7,3.1c-2.2,1.2-4.8,4-5.3,6.5
			c0.2-0.1,0.8-0.2,1.4-0.2c2.6,0,4.6,2,4.6,4.9c0,2.9-2.4,5.4-5.3,5.4c-3.2,0-6-2.5-6-6.9C107.9,51.5,110.6,47,114.9,44z"/>
	</g>
	<g display="inline">
		<g>
			<path fill="#FF5454" d="M186.4,124.6l-3.7-3.1c2.2-1.2,4.7-4,5.2-6.5c-0.2,0.1-0.7,0.2-1.3,0.2c-2.6,0-4.6-2-4.6-4.9
				s2.4-5.4,5.4-5.4c3.2,0,6,2.5,6,6.9C193.4,117,190.6,121.6,186.4,124.6z M200.2,124.6l-3.7-3.1c2.2-1.2,4.8-4,5.3-6.5
				c-0.2,0.1-0.8,0.2-1.4,0.2c-2.6,0-4.6-2-4.6-4.9s2.4-5.4,5.3-5.4c3.2,0,6,2.5,6,6.9C207.2,117,204.4,121.6,200.2,124.6z"/>
		</g>
	</g>
</g>
<g id="Drop_Caps" display="none">
	<rect x="137" y="45" display="inline" fill="#AC6C82" width="50" height="7"/>
	<rect x="137" y="57" display="inline" fill="#AC6C82" width="58" height="7"/>
	<rect x="137" y="69" display="inline" fill="#AC6C82" width="63" height="7"/>
	<rect x="104" y="81" display="inline" fill="#AC6C82" width="81" height="7"/>
	<rect x="104" y="93" display="inline" fill="#AC6C82" width="89" height="7"/>
	<rect x="104" y="105" display="inline" fill="#AC6C82" width="74" height="7"/>
	<rect x="104" y="116" display="inline" fill="#AC6C82" width="87" height="7"/>
	<path display="inline" fill="#455C7B" d="M122.9,69.9h-8.8l-1.6,6.7H104l9.6-31.6h10.1l9.6,31.6h-8.8L122.9,69.9z"/>
</g>
<g id="Shapes" display="none">
	<circle display="inline" fill="#EFC94C" cx="127" cy="84" r="37"/>
	<rect x="111" y="55" display="inline" fill="#E27A3F" width="31" height="4"/>
	<rect x="103" y="62" display="inline" fill="#E27A3F" width="47" height="4"/>
	<rect x="100" y="69" display="inline" fill="#E27A3F" width="42" height="4"/>
	<rect x="96" y="76" display="inline" fill="#E27A3F" width="54" height="4"/>
	<rect x="96" y="83" display="inline" fill="#E27A3F" width="62" height="4"/>
	<rect x="96" y="90" display="inline" fill="#E27A3F" width="56" height="4"/>
	<rect x="100" y="97" display="inline" fill="#E27A3F" width="51" height="4"/>
	<rect x="105" y="104" display="inline" fill="#E27A3F" width="45" height="4"/>
	<rect x="116" y="111" display="inline" fill="#E27A3F" width="22" height="4"/>
	<rect x="162" y="55" display="inline" fill="#334D5C" width="48" height="4"/>
	<rect x="166" y="62" display="inline" fill="#334D5C" width="40" height="4"/>
	<rect x="168" y="69" display="inline" fill="#334D5C" width="43" height="4"/>
	<rect x="169" y="76" display="inline" fill="#334D5C" width="36" height="4"/>
	<rect x="169" y="83" display="inline" fill="#334D5C" width="37" height="4"/>
	<rect x="169" y="90" display="inline" fill="#334D5C" width="32" height="4"/>
	<rect x="168" y="97" display="inline" fill="#334D5C" width="37" height="4"/>
	<rect x="165" y="104" display="inline" fill="#334D5C" width="36" height="4"/>
	<rect x="161" y="111" display="inline" fill="#334D5C" width="43" height="4"/>
</g>
<g id="Masking" display="none">
	<circle display="inline" fill="#455C7B" cx="151.3" cy="86.3" r="36.7"/>
	<polygon display="inline" fill="#685C79" points="158.3,43 154.3,43 154.3,46.3 155,46.3 155,48.3 158.3,48.3 158.3,43 	"/>
	<polygon display="inline" fill="#685C79" points="150.3,43 146.3,43 146.3,46.3 150.3,46.3 150.3,43 	"/>
	<polygon display="inline" fill="#685C79" points="142.3,43 138.3,43 138.3,46.3 142.3,46.3 142.3,43 	"/>
	<polygon display="inline" fill="#685C79" points="134.3,43 130.3,43 130.3,46.3 134.3,46.3 134.3,43 	"/>
	<polygon display="inline" fill="#685C79" points="126.3,43 122.3,43 122.3,46.3 126.3,46.3 126.3,43 	"/>
	<polygon display="inline" fill="#685C79" points="118.3,43 114.3,43 114.3,46.3 118.3,46.3 118.3,43 	"/>
	<polygon display="inline" fill="#685C79" points="110.3,43 105,43 105,49.7 108.3,49.7 108.3,46.3 110.3,46.3 110.3,43 	"/>
	<polygon display="inline" fill="#685C79" points="108.3,53.7 105,53.7 105,57.7 108.3,57.7 108.3,53.7 	"/>
	<polygon display="inline" fill="#685C79" points="108.3,61.7 105,61.7 105,65.7 108.3,65.7 108.3,61.7 	"/>
	<polygon display="inline" fill="#685C79" points="108.3,69.7 105,69.7 105,73.7 108.3,73.7 108.3,69.7 	"/>
	<polygon display="inline" fill="#685C79" points="108.3,77.7 105,77.7 105,81.7 108.3,81.7 108.3,77.7 	"/>
	<polygon display="inline" fill="#685C79" points="108.3,85.7 105,85.7 105,89.7 108.3,89.7 108.3,85.7 	"/>
	<polygon display="inline" fill="#685C79" points="105,93 105,93 105,96.3 108.3,96.3 108.3,96.3 108.3,96.3 108.3,96.3 108.3,93 	
		"/>
	<polygon display="inline" fill="#685C79" points="114.3,93 110.3,93 110.3,96.3 114.3,96.3 114.3,93 	"/>
	<path display="inline" fill="#DA727E" d="M158.3,50.3c-2.3-0.4-4.6-0.7-7-0.7c-20.3,0-36.7,16.4-36.7,36.7c0,3.5,0.5,6.8,1.4,10
		h42.3V50.3z"/>
</g>
<g id="Regions" display="none">
	<rect x="161" y="74" display="inline" fill="#BF6060" width="51" height="4"/>
	<rect x="161" y="81" display="inline" fill="#BF6060" width="53" height="4"/>
	<rect x="161" y="88" display="inline" fill="#BF6060" width="49" height="4"/>
	<rect x="161" y="95" display="inline" fill="#BF6060" width="51" height="4"/>
	<rect x="161" y="102" display="inline" fill="#BF6060" width="47" height="4"/>
	<rect x="161" y="109" display="inline" fill="#BF6060" width="51" height="4"/>
	<rect x="167" y="116" display="inline" fill="#BF6060" width="34" height="4"/>
	<rect x="88" y="48" display="inline" fill="#BF6060" width="44" height="4"/>
	<rect x="88" y="55" display="inline" fill="#BF6060" width="47" height="4"/>
	<rect x="88" y="62" display="inline" fill="#BF6060" width="54" height="4"/>
	<rect x="88" y="69" display="inline" fill="#BF6060" width="47" height="4"/>
	<rect x="88" y="76" display="inline" fill="#BF6060" width="47" height="4"/>
	<rect x="88" y="83" display="inline" fill="#BF6060" width="44" height="4"/>
	<rect x="88" y="90" display="inline" fill="#BF6060" width="53" height="4"/>
	<rect x="161" y="67" display="inline" fill="#BF6060" width="51" height="4"/>
	<rect x="88" y="97" display="inline" fill="#BF6060" width="53" height="4"/>
	<polygon display="inline" fill="#67BFA2" points="151.5,108.5 110.5,108.5 110.5,102 113.5,102 113.5,105.5 148.5,105.5 
		148.5,62.5 187.5,62.5 187.5,71.1 184.5,71.1 184.5,65.5 151.5,65.5 	"/>
	<polygon display="inline" fill="#67BFA2" points="179.1,69.1 186,81 192.9,69.1 	"/>
</g>
<g id="SVG" display="none">
	<path display="inline" fill="#67C9B6" d="M86,85v33h44V85H86z M117.1,91.9c1.6,0,2.9,1.3,2.9,2.9c0,1.6-1.3,2.9-2.9,2.9
		s-2.9-1.3-2.9-2.9C114.2,93.2,115.5,91.9,117.1,91.9z M91,114l11-14.8l10.1,9.9l5.5-4.5l8.2,9.3H91z"/>
	<path display="inline" fill="#E2E1B9" d="M100,67v51h69V67H100z M149.1,77.4c2.5,0,4.5,2,4.5,4.5s-2,4.5-4.5,4.5
		c-2.5,0-4.5-2-4.5-4.5S146.6,77.4,149.1,77.4z M108.6,111l17-22.5l15.7,15.6l8.5-7.1l12.8,14.1H108.6z"/>
	<path display="inline" fill="#67C9B6" d="M118,47v71h96V47H118z M185.4,60.8c3.5,0,6.4,2.8,6.4,6.3c0,3.5-2.8,6.3-6.4,6.3
		c-3.5,0-6.4-2.8-6.4-6.3C179.1,63.6,181.9,60.8,185.4,60.8z M128.9,109l23.8-32.1l21.9,21.4l11.9-9.5l17.9,20.2H128.9z"/>
</g>
<g id="Overlay_Effects" display="none">
	<g id="Overlay_Effects_1_" display="inline">
		<path fill="#E38268" d="M97,45v79h106V45H97z M171.9,60.4c3.9,0,7.1,3.1,7.1,7s-3.1,7-7.1,7c-3.9,0-7.1-3.1-7.1-7
			C164.9,63.5,168,60.4,171.9,60.4z M109.2,114l26.4-35.8l24.3,23.8l13.2-10.6l19.8,22.5L109.2,114L109.2,114z"/>
		<g opacity="0.85">
			<defs>
				<rect id="SVGID_1_" x="97" y="84.5" opacity="0.85" width="106" height="39.5"/>
			</defs>
			<clipPath id="SVGID_2_">
				<use xlink:href="#SVGID_1_"  overflow="visible"/>
			</clipPath>
			<g clip-path="url(#SVGID_2_)">
				<rect x="96.6" y="45" fill="#445A79" width="106.4" height="79"/>
				<path fill="#3C3E58" d="M97,45v79h106V45H97z M171.9,60.4c3.9,0,7.1,3.1,7.1,7s-3.1,7-7.1,7c-3.9,0-7.1-3.1-7.1-7
					C164.9,63.5,168,60.4,171.9,60.4z M109.2,114l26.4-35.8l24.3,23.8l13.2-10.6l19.8,22.5L109.2,114L109.2,114z"/>
			</g>
		</g>
		<rect x="128" y="93" fill="#ECEDED" width="45" height="4"/>
		<rect x="124" y="102" fill="#ECEDED" width="52" height="4"/>
		<rect x="126" y="111" fill="#ECEDED" width="49" height="4"/>
	</g>
</g>
<g id="Filter_Effects" display="none">
	<g display="inline">
		<rect x="97" y="45" fill="#445A79" width="106" height="79"/>
		<ellipse fill="#FFD577" cx="171.9" cy="67.4" rx="7" ry="7"/>
		<polygon fill="#67BFA2" points="109.2,114 135.6,78.2 159.9,102.1 173.1,91.5 192.9,114 		"/>
	</g>
	<g display="inline">
		<defs>
			<polygon id="SVGID_3_" points="203,124 115,124 194,45 203,45 			"/>
		</defs>
		<clipPath id="SVGID_4_">
			<use xlink:href="#SVGID_3_"  overflow="visible"/>
		</clipPath>
		<g clip-path="url(#SVGID_4_)">
			<rect x="97" y="45" fill="#555555" width="106" height="79"/>
			<ellipse fill="#ECEDED" cx="171.9" cy="67.4" rx="7" ry="7"/>
			<polygon fill="#ECEDED" points="109.2,114 135.6,78.2 159.9,102.1 173.1,91.5 192.9,114 			"/>
		</g>
	</g>
</g>
<g id="Web_Extensions">
	<rect x="97" y="65" fill="#FFAA5C" width="52" height="58"/>
	<circle fill="#FFAA5C" cx="124" cy="59" r="14"/>
	<circle fill="#52BAD5" cx="141" cy="97" r="14"/>
	<path fill="#52BAD5" d="M191.1,71c0.6,1.6,0.9,3.2,0.9,5c0,7.7-6.3,14-14,14s-14-6.3-14-14c0-1.8,0.3-3.4,0.9-5H149v52h58V71H191.1
		z"/>
</g>
<g id="Guides_1_">
	<rect x="70" y="40" fill="#EEEEEE" width="170" height="100"/>
	<rect x="90" y="50" fill="#333333" width="120" height="68"/>
	<text transform="matrix(1 0 0 1 97.4826 16.5221)" font-family="'MyriadPro-Regular'" font-size="12">Full frame is 300x200</text>
	<text transform="matrix(1 0 0 1 89.9951 44.522)" font-family="'MyriadPro-Regular'" font-size="12">Content area is 160x100</text>
	<text transform="matrix(1 0 0 1 107.4905 74.1221)"><tspan x="0" y="0" fill="#FFFFFF" font-family="'MyriadPro-Regular'" font-size="12">Icon should have </tspan><tspan x="-7.1" y="14.4" fill="#FFFFFF" font-family="'MyriadPro-Regular'" font-size="12">rough visual weight </tspan><tspan x="2.2" y="28.8" fill="#FFFFFF" font-family="'MyriadPro-Regular'" font-size="12">of this rectangle</tspan></text>
</g>
</svg>
