<?xml version="1.0" encoding="utf-8"?>
<!DOCTYPE svg PUBLIC "-//W3C//DTD SVG 1.1//EN" "http://www.w3.org/Graphics/SVG/1.1/DTD/svg11.dtd">
<svg version="1.1" xmlns="http://www.w3.org/2000/svg"
    xmlns:xlink="http://www.w3.org/1999/xlink"
    viewBox="0 0 160 100">
<mask id="mask1">
<rect x="52" y="9" width="58" height="74" fill="white" />
<circle fill="black" cx="82.12" cy="44.5" r="19.38"/>
<rect x="46" y="22" width="11" height="6" rx="2.5" ry="2.5" />
<rect x="46" y="42" width="11" height="6" rx="2.5" ry="2.5" />
<rect x="46" y="62" width="11" height="6" rx="2.5" ry="2.5" />
</mask>
<rect x="52" y="9" width="58" height="74" rx="12" ry="12" fill="#BF6060" mask="url(#mask1)" />
<path fill="#BF6060" d="M83.63,31.14c7.1,0,11.65,4.86,11.65,11.71c0,5.95-4.1,8.9-7.62,8.9c-1.89,0-3.46-0.9-3.84-2.43h-0.06
    c-0.83,1.28-2.56,2.11-3.84,2.11c-2.62,0-4.35-1.98-4.35-4.93c0-4.1,2.94-8,6.59-8c1.02,0,1.86,0.45,2.37,1.6h0.06l0.51-1.34h3.33
    l-1.54,7.3c-0.38,1.6,0.06,2.37,1.34,2.37c1.92,0,3.65-2.18,3.65-5.44c0-4.35-2.24-8.58-8.7-8.58c-5.38,0-10.75,4.61-10.75,11.71
    c0,6.34,4.48,9.15,9.28,9.15c1.54,0,3.46-0.51,4.74-1.15l1.15,2.94c-1.98,1.02-4.03,1.47-6.34,1.47c-6.46,0-12.48-3.84-12.48-12.29
    C68.79,37.15,75.51,31.14,83.63,31.14z M81.14,48.03c0.58,0,1.09-0.32,1.79-1.28l0.7-4.03c-0.22-0.45-0.7-0.77-1.28-0.77
    c-1.66,0-2.69,2.5-2.69,4.22C79.67,47.36,80.18,48.03,81.14,48.03z"/>
<g fill="#BF6060">
<rect x="47.5" y="23.5" width="8" height="3" rx="1" ry="1" />
<rect x="47.5" y="43.5" width="8" height="3" rx="1" ry="1" />
<rect x="47.5" y="63.5" width="8" height="3" rx="1" ry="1" />
</g>
</svg>
