<?xml version="1.0" encoding="utf-8"?>
<!DOCTYPE svg PUBLIC "-//W3C//DTD SVG 1.1//EN" "http://www.w3.org/Graphics/SVG/1.1/DTD/svg11.dtd">
<svg version="1.1" id="Layer_1" xmlns="http://www.w3.org/2000/svg" xmlns:xlink="http://www.w3.org/1999/xlink" x="0px" y="0px"
     viewBox="70 40 160 100" style="enable-background:new 0 0 300 200;" xml:space="preserve">
<g id="Overlay_Effects">
    <path style="fill:#E38268;" d="M97,45v79h106V45H97z M171.867,60.388c3.873,0,7.06,3.136,7.06,7.008s-3.138,7.008-7.06,7.008
        c-3.922,0-7.06-3.136-7.06-7.008C164.856,63.525,167.994,60.388,171.867,60.388z M109.208,114.002l26.377-35.775l24.318,23.818
        l13.189-10.586l19.808,22.494h-83.692V114.002z"/>
    <g style="opacity:0.85;">
        <defs>
            <rect id="SVGID_1_" x="97" y="84.549" style="opacity:0.85;" width="106" height="39.451"/>
        </defs>
        <clipPath id="SVGID_2_">
            <use xlink:href="#SVGID_1_"  style="overflow:visible;"/>
        </clipPath>
        <g style="clip-path:url(#SVGID_2_);">
            <rect x="96.559" y="45" style="fill:#445A79;" width="106.441" height="79"/>
            <path style="fill:#3C3E58;" d="M97,45v79h106V45H97z M171.867,60.388c3.873,0,7.06,3.136,7.06,7.008s-3.138,7.008-7.06,7.008
                c-3.922,0-7.06-3.136-7.06-7.008C164.856,63.525,167.994,60.388,171.867,60.388z M109.208,114.002l26.377-35.775l24.318,23.818
                l13.189-10.586l19.808,22.494h-83.692V114.002z"/>
        </g>
    </g>
    <rect x="128" y="93" style="fill:#ECEDED;" width="45.008" height="4"/>
    <rect x="124" y="102" style="fill:#ECEDED;" width="52" height="4"/>
    <rect x="126" y="111" style="fill:#ECEDED;" width="49" height="4"/>
</g>
</svg>
