<?xml version="1.0" encoding="iso-8859-1"?>
<!-- Generator: Adobe Illustrator 18.0.0, SVG Export Plug-In . SVG Version: 6.00 Build 0)  -->
<!DOCTYPE svg PUBLIC "-//W3C//DTD SVG 1.1//EN" "http://www.w3.org/Graphics/SVG/1.1/DTD/svg11.dtd">
<svg version="1.1" xmlns="http://www.w3.org/2000/svg" xmlns:xlink="http://www.w3.org/1999/xlink" x="0px" y="0px"
	 viewBox="0 0 300 200" style="enable-background:new 0 0 300 200;" xml:space="preserve">
<g id="Pull_Quotes">
	<rect x="115" y="57" style="fill:#00546B;" width="71" height="7"/>
	<rect x="115" y="68" style="fill:#00546B;" width="75" height="7"/>
	<rect x="115" y="79" style="fill:#00546B;" width="48" height="7"/>
	<rect x="115" y="90" style="fill:#00546B;" width="66" height="7"/>
	<rect x="115" y="101" style="fill:#00546B;" width="39" height="7"/>
	<rect x="115" y="112" style="fill:#00546B;" width="63" height="7"/>
	<g>
		<path style="fill:#FF5454;" d="M100.996,44l3.735,3.056c-2.173,1.155-4.686,4.007-5.297,6.452
			c0.271-0.136,0.815-0.204,1.358-0.204c2.581,0,4.618,1.97,4.618,4.89c0,2.92-2.445,5.366-5.365,5.366
			c-3.192,0-6.045-2.513-6.045-6.928C94,51.539,96.785,46.988,100.996,44z M114.851,44l3.736,3.056
			c-2.173,1.155-4.754,4.007-5.297,6.452c0.203-0.136,0.815-0.204,1.358-0.204c2.581,0,4.55,1.97,4.55,4.89
			c0,2.92-2.377,5.366-5.297,5.366c-3.192,0-6.045-2.513-6.045-6.928C107.855,51.539,110.64,46.988,114.851,44z"/>
	</g>
	<g>
		<g>
			<path style="fill:#FF5454;" d="M186.415,124.56l-3.736-3.056c2.173-1.154,4.686-4.007,5.229-6.452
				c-0.203,0.136-0.747,0.204-1.29,0.204c-2.581,0-4.618-1.97-4.618-4.89s2.445-5.365,5.365-5.365c3.192,0,6.045,2.513,6.045,6.928
				C193.41,117.021,190.626,121.572,186.415,124.56z M200.201,124.56l-3.735-3.056c2.173-1.154,4.754-4.007,5.297-6.452
				c-0.203,0.136-0.815,0.204-1.358,0.204c-2.581,0-4.551-1.97-4.551-4.89s2.377-5.365,5.298-5.365c3.192,0,6.045,2.513,6.045,6.928
				C207.197,117.021,204.413,121.572,200.201,124.56z"/>
		</g>
	</g>
</g>
<g id="Layer_1">
</g>
</svg>
