<?xml version="1.0" encoding="utf-8"?>
<!DOCTYPE svg PUBLIC "-//W3C//DTD SVG 1.1//EN" "http://www.w3.org/Graphics/SVG/1.1/DTD/svg11.dtd">
<svg version="1.1" xmlns="http://www.w3.org/2000/svg" xmlns:xlink="http://www.w3.org/1999/xlink"
    viewBox="0 0 160 100">
<g fill="#67BFA2">
    <clipPath id="mask1">
        <polygon points="120,8 120,85 38,85 38,56 88,56 88,8"/>
    </clipPath>
    <circle clip-path="url(#mask1)" cx="81.33" cy="46.33" r="36.67"/>
</g>
<g fill="#67BFA2">
    <clipPath id="mask2">
        <circle cx="81.33" cy="46.33" r="36.67"/>
    </clipPath>
    <g clip-path="url(#mask2)">
        <rect x="38" y="8" opacity="0.2" width="10.2" height="48.2"/>
        <rect x="48" y="8" opacity="0.38" width="10.2" height="48.2"/>
        <rect x="58" y="8" opacity="0.55" width="10.2" height="48.2"/>
        <rect x="68" y="8" opacity="0.73" width="10.2" height="48.2"/>
        <rect x="78" y="8" opacity="0.9" width="10.2" height="48.2"/>
    </g>
</g>
<g fill="#E38268">
    <polygon points="88.33,3 84.33,3 84.33,6.33 85,6.33 85,8.33 88.33,8.33"/>
    <polygon points="80.33,3 76.33,3 76.33,6.33 80.33,6.33"/>
    <polygon points="72.33,3 68.33,3 68.33,6.33 72.33,6.33"/>
    <polygon points="64.33,3 60.33,3 60.33,6.33 64.33,6.33"/>
    <polygon points="56.33,3 52.33,3 52.33,6.33 56.33,6.33"/>
    <polygon points="48.33,3 44.33,3 44.33,6.33 48.33,6.33"/>
    <polygon points="40.33,3 35,3 35,9.67 38.33,9.67 38.33,6.33 40.33,6.33"/>
    <polygon points="38.33,13.67 35,13.67 35,17.67 38.33,17.67"/>
    <polygon points="38.33,21.67 35,21.67 35,25.67 38.33,25.67"/>
    <polygon points="38.33,29.67 35,29.67 35,33.67 38.33,33.67"/>
    <polygon points="38.33,37.67 35,37.67 35,41.67 38.33,41.67"/>
    <polygon points="38.33,45.67 35,45.67 35,49.67 38.33,49.67"/>
    <polygon points="35,53 35,53 35,56.33 38.33,56.33 38.33,56.33 38.33,56.33 38.33,56.33 38.33,53"/>
    <polygon points="44.33,53 40.33,53 40.33,56.33 44.33,56.33"/>
</g>
</svg>
