<?xml version="1.0" encoding="utf-8"?>
<!-- Generator: Adobe Illustrator 18.0.0, SVG Export Plug-In . SVG Version: 6.00 Build 0)  -->
<!DOCTYPE svg PUBLIC "-//W3C//DTD SVG 1.1//EN" "http://www.w3.org/Graphics/SVG/1.1/DTD/svg11.dtd">
<svg version="1.1" id="Layer_1" xmlns="http://www.w3.org/2000/svg" xmlns:xlink="http://www.w3.org/1999/xlink" x="0px" y="0px"
	 viewBox="0 0 612 792" enable-background="new 0 0 612 792" xml:space="preserve">
<path fill="#455C7B" d="M425.1,665.2h11c69.6-1.1,136.1-9.1,148-21.1c3-26,6.3-38.6-106.3-93.4c-16-9.2-7.4-44.9-7.4-44.9
	c33.9-26.3,57-87.2,57-136.1c0-84.3-37-124.3-91.3-128.4h-11c-54.3,4.1-91.3,43.9-91.3,128.4c0,48.9,23.2,109.7,57,136.1
	c0,0,8.6,35.7-7.4,44.9c-112.6,54.8-109.3,67.4-106.3,93.4C289,656.1,355.4,664.1,425.1,665.2z"/>
<path fill="#E38268" d="M184,539.1h11C264.6,538,331,530,343,518c3-26,6.3-38.6-106.3-93.4c-16-9.2-7.4-44.9-7.4-44.9
	c33.8-26.3,57-87.2,57-136.1c0-84.3-36.9-124.3-91.3-128.4h-11c-54.3,4.1-91.3,43.9-91.3,128.4c0,48.9,23.2,109.7,57,136.1
	c0,0,8.6,35.7-7.4,44.9C29.6,479.4,33,492,36,518C47.9,530,114.3,538,184,539.1z"/>
</svg>
