<?xml version="1.0" encoding="utf-8"?>
<!-- Generator: Adobe Illustrator 17.1.0, SVG Export Plug-In . SVG Version: 6.00 Build 0)  -->
<!DOCTYPE svg PUBLIC "-//W3C//DTD SVG 1.1//EN" "http://www.w3.org/Graphics/SVG/1.1/DTD/svg11.dtd">
<svg version="1.1" xmlns="http://www.w3.org/2000/svg" xmlns:xlink="http://www.w3.org/1999/xlink" x="0px" y="0px"
	 viewBox="0 0 300 200" style="enable-background:new 0 0 300 200;" xml:space="preserve">
<style type="text/css">
	.st0{fill:#786F87;}
	.st1{fill:#67C9B6;}
	.st2{fill:#EDC74B;}
	.st3{fill:#E26926;}
</style>
<g id="purple">
	<rect class="st0" width="300" height="200"/>
</g>
<g id="move-svg-1">
	<g id="green">
		<rect x="86" y="34" class="st1" width="128" height="110"/>
	</g>
	<g id="yellow">
		<g>
			<path class="st2" d="M150,79.9c-0.5,0-0.9-0.4-1.3-0.8c-0.3-0.4-0.7-0.7-1.1-0.8c-0.1,0-0.2,0-0.2,0c-0.4,0-0.8,0.1-1.2,0.3
				c-0.4,0.1-0.8,0.3-1.2,0.3c-0.1,0-0.3,0-0.4-0.1c-0.4-0.2-0.5-0.7-0.6-1.2c-0.1-0.5-0.2-0.9-0.5-1.2c-0.3-0.2-0.9-0.3-1.4-0.4
				c-0.6-0.1-1.2-0.2-1.5-0.5c-0.2-0.3,0-0.8,0.2-1.3c0.2-0.4,0.4-0.9,0.3-1.3c-0.1-0.3-0.5-0.6-1-0.9c-0.5-0.3-1-0.7-1-1.1
				s0.5-0.7,1-1.1c0.4-0.3,0.9-0.6,1-0.9c0.1-0.4-0.1-0.8-0.3-1.3c-0.2-0.5-0.4-1-0.2-1.3c0.2-0.3,0.9-0.4,1.5-0.5
				c0.5-0.1,1.1-0.1,1.4-0.4c0.3-0.3,0.4-0.7,0.5-1.2c0.1-0.5,0.2-1,0.6-1.2c0.1-0.1,0.2-0.1,0.4-0.1c0.3,0,0.8,0.1,1.2,0.3
				c0.4,0.1,0.9,0.3,1.2,0.3c0.1,0,0.2,0,0.2,0c0.4-0.1,0.7-0.5,1.1-0.8c0.4-0.4,0.8-0.8,1.3-0.8s0.9,0.4,1.3,0.8
				c0.3,0.4,0.7,0.7,1.1,0.8c0.1,0,0.2,0,0.2,0c0.4,0,0.8-0.1,1.2-0.3c0.4-0.1,0.8-0.3,1.2-0.3c0.1,0,0.3,0,0.4,0.1
				c0.4,0.2,0.5,0.7,0.6,1.2c0.1,0.5,0.2,0.9,0.5,1.2c0.3,0.2,0.9,0.3,1.4,0.4c0.6,0.1,1.2,0.2,1.5,0.5c0.2,0.3,0,0.8-0.2,1.3
				c-0.2,0.4-0.4,0.9-0.3,1.3c0.1,0.3,0.5,0.6,1,0.9c0.5,0.3,1,0.7,1,1.1s-0.5,0.7-1,1.1c-0.4,0.3-0.9,0.6-1,0.9
				c-0.1,0.4,0.1,0.8,0.3,1.3c0.2,0.5,0.4,1,0.2,1.3c-0.2,0.3-0.9,0.4-1.5,0.5c-0.5,0.1-1.1,0.1-1.4,0.4c-0.3,0.3-0.4,0.7-0.5,1.2
				c-0.1,0.5-0.2,1-0.6,1.2c-0.1,0.1-0.2,0.1-0.4,0.1c-0.3,0-0.8-0.1-1.2-0.3c-0.4-0.1-0.8-0.3-1.2-0.3c-0.1,0-0.2,0-0.2,0
				c-0.4,0.1-0.7,0.5-1.1,0.8C150.9,79.4,150.5,79.9,150,79.9z"/>
			<g>
				<path class="st3" d="M150,61.8c0.4,0,0.8,0.4,1.2,0.8c0.3,0.4,0.7,0.7,1.1,0.8c0.1,0,0.2,0,0.3,0c0.4,0,0.8-0.1,1.2-0.3
					c0.4-0.1,0.8-0.3,1.2-0.3c0.1,0,0.3,0,0.4,0.1c0.4,0.2,0.5,0.7,0.5,1.2c0.1,0.5,0.2,1,0.5,1.2c0.3,0.3,0.8,0.3,1.4,0.4
					c0.6,0.1,1.2,0.2,1.4,0.5c0.2,0.3,0,0.8-0.2,1.2c-0.2,0.5-0.4,0.9-0.3,1.3c0.1,0.4,0.5,0.6,1,0.9c0.5,0.3,1,0.7,1,1
					c0,0.4-0.5,0.7-1,1c-0.4,0.3-0.9,0.6-1,0.9c-0.1,0.4,0.1,0.8,0.3,1.3c0.2,0.5,0.4,1,0.2,1.2c-0.2,0.3-0.8,0.4-1.4,0.5
					c-0.6,0.1-1.1,0.1-1.4,0.4c-0.3,0.3-0.4,0.7-0.5,1.2c-0.1,0.5-0.2,1-0.5,1.2c-0.1,0-0.2,0.1-0.4,0.1c-0.3,0-0.7-0.1-1.2-0.3
					c-0.4-0.1-0.9-0.3-1.2-0.3c-0.1,0-0.2,0-0.3,0c-0.4,0.1-0.8,0.5-1.1,0.8c-0.4,0.4-0.8,0.8-1.2,0.8c-0.4,0-0.8-0.4-1.2-0.8
					c-0.3-0.4-0.7-0.7-1.1-0.8c-0.1,0-0.2,0-0.3,0c-0.4,0-0.8,0.1-1.2,0.3c-0.4,0.1-0.8,0.3-1.2,0.3c-0.1,0-0.3,0-0.4-0.1
					c-0.4-0.2-0.5-0.7-0.5-1.2c-0.1-0.5-0.2-1-0.5-1.2c-0.3-0.3-0.8-0.3-1.4-0.4c-0.6-0.1-1.2-0.2-1.4-0.5c-0.2-0.3,0-0.8,0.2-1.2
					c0.2-0.5,0.4-0.9,0.3-1.3c-0.1-0.4-0.5-0.6-1-0.9c-0.5-0.3-1-0.7-1-1s0.5-0.7,1-1c0.4-0.3,0.9-0.6,1-0.9
					c0.1-0.4-0.1-0.8-0.3-1.3c-0.2-0.5-0.4-1-0.2-1.2c0.2-0.3,0.8-0.4,1.4-0.5c0.6-0.1,1.1-0.1,1.4-0.4c0.3-0.3,0.4-0.8,0.5-1.2
					c0.1-0.5,0.2-1,0.5-1.2c0.1,0,0.2-0.1,0.4-0.1c0.3,0,0.7,0.1,1.2,0.3c0.4,0.1,0.9,0.3,1.2,0.3c0.1,0,0.2,0,0.3,0
					c0.4-0.1,0.8-0.5,1.1-0.8C149.2,62.2,149.6,61.8,150,61.8 M150,61.7c-0.9,0-1.5,1.5-2.3,1.7c-0.1,0-0.2,0-0.2,0
					c-0.7,0-1.7-0.5-2.4-0.5c-0.1,0-0.3,0-0.4,0.1c-0.8,0.4-0.4,1.9-1.1,2.4c-0.6,0.5-2.4,0.3-2.9,0.9c-0.4,0.6,0.7,1.8,0.5,2.6
					c-0.2,0.7-2,1.2-2,2c0,0.8,1.7,1.3,2,2c0.2,0.7-0.9,1.9-0.5,2.6c0.4,0.6,2.3,0.4,2.9,0.9c0.6,0.5,0.3,2.1,1.1,2.4
					c0.1,0.1,0.2,0.1,0.4,0.1c0.7,0,1.7-0.5,2.4-0.5c0.1,0,0.2,0,0.2,0c0.8,0.2,1.5,1.7,2.3,1.7c0.9,0,1.5-1.5,2.3-1.7
					c0.1,0,0.2,0,0.2,0c0.7,0,1.7,0.5,2.4,0.5c0.1,0,0.3,0,0.4-0.1c0.8-0.4,0.4-1.9,1.1-2.4c0.6-0.5,2.4-0.3,2.9-0.9
					c0.4-0.6-0.7-1.8-0.5-2.6c0.2-0.7,2-1.2,2-2c0-0.8-1.7-1.3-2-2c-0.2-0.7,0.9-1.9,0.5-2.6c-0.4-0.6-2.3-0.4-2.9-0.9
					c-0.6-0.5-0.3-2.1-1.1-2.4c-0.1-0.1-0.2-0.1-0.4-0.1c-0.7,0-1.7,0.5-2.4,0.5c-0.1,0-0.2,0-0.2,0C151.5,63.2,150.9,61.7,150,61.7
					L150,61.7z"/>
			</g>
		</g>
	</g>
</g>
</svg>
