<?xml version="1.0" encoding="utf-8"?>
<!DOCTYPE svg PUBLIC "-//W3C//DTD SVG 1.1//EN" "http://www.w3.org/Graphics/SVG/1.1/DTD/svg11.dtd">
<svg version="1.1" xmlns="http://www.w3.org/2000/svg" x="0px" y="0px"
	 viewBox="0 0 700 550" style="enable-background:new 0 0 700 550;" xml:space="preserve">
<style type="text/css"><![CDATA[
	@-webkit-keyframes clockwise {
		from { -webkit-transform: rotate(0deg) translateZ(0); }
		to { -webkit-transform: rotate(360deg) translateZ(0); }
	}
	@keyframes clockwise {
		from { tranform: rotate(0deg) translateZ(0); }
		to { transform: rotate(360deg) translateZ(0); }
	}
	@-webkit-keyframes translate-box {
		0% { -webkit-transform: translate3d(150px, 150px, 0); }
		25% { -webkit-transform: translate3d(550px, 150px, 0); }
		50% { -webkit-transform: translate3d(550px, 400px, 0); }
		75% { -webkit-transform: translate3d(150px, 400px, 0); }
		100% { -webkit-transform: translate3d(150px, 150px, 0); }
	}
	@keyframes translate-box {
		0% { transform: translate3d(150px, 150px, 0); }
		25% { transform: translate3d(550px, 150px, 0); }
		50% { transform: translate3d(550px, 400px, 0); }
		75% { transform: translate3d(150px, 400px, 0); }
		100% { transform: translate3d(150px, 150px, 0); }
	}
	.rectangle{
		fill:#67C9B6;
	}
	.star{
		fill:#EDC74B;
		-webkit-animation: clockwise 6s infinite ease-in-out;
		animation: clockwise 6s infinite ease-in-out;
	}
	.moving-box {
		-webkit-animation: translate-box 60s ease-in-out;
		animation: translate-box 60s ease-in-out;
	}
]]></style>
<g class="moving-box">
	<rect class='rectangle' x="-150" y="-150" width="300" height="300"/>
</g>
<g class="moving-box">
	<path class="star" d="M0,74.6c-3.2,0-6-3.5-8.8-6.9c-2.5-3.1-4.8-6-7.6-6.7c-0.5-0.1-1.1-0.2-1.8-0.2c-2.6,0-5.6,1.2-8.5,2.3
		c-2.8,1.1-5.8,2.2-8.1,2.2c-1,0-1.9-0.2-2.6-0.6c-2.7-1.5-3.4-5.9-4-10.2c-0.6-3.8-1.2-7.8-3.3-9.8c-2.1-2.1-6-2.7-9.8-3.3
		c-4.3-0.7-8.7-1.4-10.2-4c-1.5-2.6,0.1-6.7,1.6-10.7c1.4-3.6,2.8-7.4,2.1-10.3c-0.7-2.7-3.7-5.1-6.8-7.6C-71.1,6-74.6,3.2-74.6,0
		s3.5-6,6.9-8.7c3.1-2.5,6-4.9,6.8-7.6c0.8-2.9-0.7-6.6-2.1-10.3c-1.5-4-3.1-8.1-1.6-10.7c1.5-2.7,5.9-3.3,10.2-4
		c3.8-0.6,7.8-1.2,9.8-3.3c2.1-2.1,2.7-6,3.3-9.8c0.7-4.3,1.4-8.7,4-10.2c0.7-0.4,1.6-0.6,2.6-0.6c2.4,0,5.3,1.1,8.1,2.2
		c2.9,1.1,6,2.3,8.5,2.3c0.6,0,1.2-0.1,1.8-0.2c2.7-0.7,5.1-3.7,7.6-6.8c2.7-3.4,5.6-6.9,8.7-6.9s6,3.5,8.7,6.9
		c2.5,3.1,4.9,6,7.6,6.8c0.5,0.1,1.1,0.2,1.8,0.2c2.6,0,5.6-1.2,8.5-2.3c2.8-1.1,5.8-2.2,8.1-2.2c1,0,1.9,0.2,2.6,0.6
		c2.7,1.5,3.3,5.9,4,10.2c0.6,3.8,1.2,7.8,3.3,9.8c2.1,2.1,6,2.7,9.8,3.3c4.3,0.7,8.7,1.4,10.2,4c1.5,2.6-0.1,6.7-1.6,10.7
		c-1.4,3.6-2.8,7.4-2.1,10.3c0.7,2.7,3.7,5.1,6.8,7.6C71.1-6,74.6-3.2,74.6,0c0,3.2-3.5,6-6.9,8.7c-3.1,2.5-6,4.9-6.8,7.6
		c-0.8,2.9,0.7,6.6,2.1,10.3c1.5,4,3.1,8.1,1.6,10.7c-1.5,2.7-5.9,3.3-10.2,4c-3.8,0.6-7.8,1.2-9.8,3.3c-2.1,2.1-2.7,6-3.3,9.8
		c-0.7,4.3-1.4,8.7-4,10.2c-0.7,0.4-1.6,0.6-2.6,0.6c-2.4,0-5.3-1.1-8.1-2.2c-2.9-1.1-6-2.3-8.5-2.3c-0.6,0-1.2,0.1-1.8,0.2
		c-2.7,0.7-5.1,3.7-7.6,6.8C6,71.1,3.2,74.6,0,74.6z"/>
</g>
</svg>
