<?xml version="1.0" encoding="utf-8"?>
<!-- Generator: Adobe Illustrator 17.1.0, SVG Export Plug-In . SVG Version: 6.00 Build 0)  -->
<!DOCTYPE svg PUBLIC "-//W3C//DTD SVG 1.1//EN" "http://www.w3.org/Graphics/SVG/1.1/DTD/svg11.dtd">
<svg version="1.1" xmlns="http://www.w3.org/2000/svg" xmlns:xlink="http://www.w3.org/1999/xlink" x="0px" y="0px"
	 viewBox="0 0 700 550" style="enable-background:new 0 0 700 550;" xml:space="preserve">
<style type="text/css">
    .svg-bg{fill:#786F87;}
    
    .svg-move {
        fill:#67C9B6;
   
        -webkit-animation-name: moveit;
        -webkit-animation-duration: 40s;
        -webkit-animation-iteration-count: infinite;
        -webkit-animation-play-state: linear;

        animation-name: moveit;
        animation-duration: 40s;
        animation-iteration-count: infinite;
        animation-play-state: linear;    
    }

    .svg-g-2 {
        fill: #EDC74B;
    
        -webkit-animation: clockwise 6s infinite linear;
        animation: clockwise 6s infinite linear;
    
        -webkit-transform-origin: 50% 50%;
        transform-origin: 50% 50%;
    }

    @-webkit-keyframes clockwise {
        0%   { -webkit-transform: rotate(0deg); }
        100% { -webkit-transform: rotate(360deg); }
    }
    @keyframes clockwise {
        0%   { transform: rotate(0deg); }
        100% { transform: rotate(360deg); }
    }

    @-webkit-keyframes moveit {
        0% {
           -webkit-transform: translate(-275px, -150px);
           -webkit-animation-timing-function:ease-in-out
        }
        25% {
           -webkit-transform: translate(275px, -150px);
           -webkit-animation-timing-function:ease-in-out
        }
        50% {
           -webkit-transform: translate(275px, 250px);
           -webkit-animation-timing-function:ease-in-out
        }
        75% {
           -webkit-transform: translate(-275px, 250px);
           -webkit-animation-timing-function:ease-in-out
        }
        100% {
           -webkit-transform: translate(-275px, -150px);
           -webkit-animation-timing-function:ease-in-out
        }
    }
    @keyframes moveit {
        0% {
           transform: translate(-275px, -150px);
           animation-timing-function:ease-in-out
        }
        25% {
           transform: translate(275px, -150px);
           animation-timing-function:ease-in-out
        }
        50% {
           transform: translate(275px, 250px);
           animation-timing-function:ease-in-out
        }
        75% {
           transform: translate(-275px, 250px);
           animation-timing-function:ease-in-out
        }
        100% {
           transform: translate(-275px, -150px);
           animation-timing-function:ease-in-out
        }
    }

</style>

<g id="purple" class="svg-bg" >
	<rect width="700" height="550"/>
</g>
<g id="move-svg-1" class="svg-move">
	<g id="green" class="svg-g-1" >
        <rect class="svg-g-1" x="300" y="175" width="100" height="100"/>
	</g>
	<g id="yellow" class="mozwrapper" >
		<g class="svg-g-2" width="100" height="100">
			<path  d="M350,250.9c-1.1,0-2-1.2-2.9-2.3c-0.8-1-1.6-2-2.5-2.2c-0.2,0-0.4-0.1-0.6-0.1c-0.9,0-1.9,0.4-2.8,0.8
				c-0.9,0.4-1.9,0.7-2.7,0.7c-0.3,0-0.6-0.1-0.9-0.2c-0.9-0.5-1.1-2-1.3-3.4c-0.2-1.3-0.4-2.6-1.1-3.3c-0.7-0.7-2-0.9-3.3-1.1
				c-1.4-0.2-2.9-0.5-3.4-1.3c-0.5-0.9,0-2.2,0.5-3.6c0.5-1.2,0.9-2.5,0.7-3.4c-0.2-0.9-1.2-1.7-2.3-2.5c-1.1-0.9-2.3-1.9-2.3-2.9
				s1.2-2,2.3-2.9c1-0.8,2-1.6,2.3-2.5c0.3-1-0.2-2.2-0.7-3.4c-0.5-1.3-1-2.7-0.5-3.6c0.5-0.9,2-1.1,3.4-1.3
				c1.3-0.2,2.6-0.4,3.3-1.1s0.9-2,1.1-3.3c0.2-1.4,0.5-2.9,1.3-3.4c0.2-0.1,0.5-0.2,0.9-0.2c0.8,0,1.8,0.4,2.7,0.7
				c1,0.4,2,0.8,2.8,0.8c0.2,0,0.4,0,0.6-0.1c0.9-0.2,1.7-1.2,2.5-2.3c0.9-1.1,1.9-2.3,2.9-2.3s2,1.2,2.9,2.3c0.8,1,1.6,2,2.5,2.3
				c0.2,0,0.4,0.1,0.6,0.1c0.9,0,1.9-0.4,2.8-0.8c0.9-0.4,1.9-0.7,2.7-0.7c0.3,0,0.6,0.1,0.9,0.2c0.9,0.5,1.1,2,1.3,3.4
				c0.2,1.3,0.4,2.6,1.1,3.3c0.7,0.7,2,0.9,3.3,1.1c1.4,0.2,2.9,0.5,3.4,1.3c0.5,0.9,0,2.2-0.5,3.6c-0.5,1.2-0.9,2.5-0.7,3.4
				c0.2,0.9,1.2,1.7,2.3,2.5c1.1,0.9,2.3,1.9,2.3,2.9s-1.2,2-2.3,2.9c-1,0.8-2,1.6-2.3,2.5c-0.3,1,0.2,2.2,0.7,3.4
				c0.5,1.3,1,2.7,0.5,3.6c-0.5,0.9-2,1.1-3.4,1.3c-1.3,0.2-2.6,0.4-3.3,1.1c-0.7,0.7-0.9,2-1.1,3.3c-0.2,1.4-0.5,2.9-1.3,3.4
				c-0.2,0.1-0.5,0.2-0.9,0.2c-0.8,0-1.8-0.4-2.7-0.7c-1-0.4-2-0.8-2.8-0.8c-0.2,0-0.4,0-0.6,0.1c-0.9,0.2-1.7,1.2-2.5,2.3
				C350,250,350,250,350,250z"/>
		</g>
	</g>
</g>
</svg>