<?xml version="1.0" encoding="utf-8"?>
<!-- Generator: Adobe Illustrator 17.1.0, SVG Export Plug-In . SVG Version: 6.00 Build 0)  -->
<!DOCTYPE svg PUBLIC "-//W3C//DTD SVG 1.1//EN" "http://www.w3.org/Graphics/SVG/1.1/DTD/svg11.dtd">
<svg version="1.1" id="Layer_1" xmlns="http://www.w3.org/2000/svg" xmlns:xlink="http://www.w3.org/1999/xlink" x="0px" y="0px"
	 viewBox="0 0 110 60" enable-background="new 0 0 110 60" xml:space="preserve">
<rect fill="#FF0000" width="43" height="60"/>
<g>
	<path fill="#FFFFFF" d="M13.09,48.863l-0.269-1.599c-0.077-0.461-0.177-1.179-0.25-1.678h-0.03
		c-0.079,0.502-0.189,1.242-0.27,1.682l-0.291,1.595H13.09z M11.837,49.904l-0.352,1.772H10.19l1.615-7.376h1.587l1.468,7.376
		h-1.303l-0.343-1.772H11.837z"/>
	<path fill="#FFFFFF" d="M17.807,48.382c0-0.099,0-0.214-0.018-0.318c-0.052-0.365-0.246-0.693-0.557-0.693
		c-0.534,0-0.731,0.771-0.731,1.672c0,1.034,0.28,1.624,0.712,1.624c0.198,0,0.425-0.102,0.549-0.536
		c0.03-0.087,0.046-0.203,0.046-0.338V48.382z M19.136,44.104v6.042c0,0.48,0.026,1.069,0.044,1.53h-1.147l-0.076-0.616H17.93
		c-0.192,0.378-0.611,0.702-1.113,0.702c-1.1,0-1.645-1.213-1.645-2.745c0-1.867,0.813-2.775,1.699-2.775
		c0.464,0,0.763,0.228,0.914,0.556h0.021v-2.694H19.136z"/>
	<path fill="#FFFFFF" d="M21.905,50.742c0.506,0,0.633-0.956,0.633-1.747c0-0.753-0.126-1.732-0.655-1.732
		c-0.562,0-0.679,0.979-0.679,1.732c0,0.908,0.149,1.747,0.691,1.747H21.905z M21.88,51.762c-1.224,0-1.992-0.984-1.992-2.744
		c0-1.921,0.985-2.776,2.022-2.776c1.208,0,1.968,1.032,1.968,2.744c0,2.201-1.188,2.776-1.986,2.776H21.88z"/>
	<path fill="#FFFFFF" d="M25.949,49.768c0,0.132,0.024,0.257,0.053,0.341c0.133,0.448,0.358,0.558,0.541,0.558
		c0.513,0,0.721-0.652,0.721-1.693c0-0.948-0.22-1.603-0.726-1.603c-0.252,0-0.464,0.274-0.538,0.569
		c-0.026,0.091-0.05,0.237-0.05,0.336V49.768z M24.62,44.104h1.329v2.785h0.021c0.262-0.411,0.611-0.646,1.116-0.646
		c1.002,0,1.505,1.14,1.505,2.629c0,1.883-0.75,2.891-1.722,2.891c-0.464,0-0.773-0.205-1.05-0.726h-0.029l-0.075,0.64h-1.14
		c0.018-0.444,0.044-1.05,0.044-1.53V44.104z"/>
	<path fill="#FFFFFF" d="M31.777,48.493c0.007-0.751-0.213-1.275-0.634-1.275c-0.482,0-0.686,0.704-0.701,1.275H31.777z
		 M30.438,49.434c0.015,0.966,0.524,1.281,1.154,1.281c0.399,0,0.744-0.088,0.997-0.185l0.178,0.956
		c-0.352,0.153-0.896,0.248-1.417,0.248c-1.428,0-2.206-0.974-2.206-2.639c0-1.787,0.903-2.86,2.084-2.86
		c1.139,0,1.771,0.948,1.771,2.496c0,0.355-0.014,0.553-0.037,0.709L30.438,49.434z"/>
	<polygon fill="#FFFFFF" points="24.498,20 33,20 33,40.356 	"/>
	<polygon fill="#FFFFFF" points="18.508,20 10,20 10,40.356 	"/>
	<polygon fill="#FFFFFF" points="21.503,27.501 26.921,40.355 23.371,40.355 21.75,36.261 17.786,36.261 	"/>
</g>
<g>
	<path fill="#231F20" d="M55.641,17.284l-0.479,2.465h-2.033L55.465,8.96h2.513l2.098,10.789h-2.033l-0.464-2.465H55.641z
		 M57.386,15.651l-0.353-2.257c-0.111-0.656-0.256-1.729-0.352-2.449h-0.048c-0.112,0.72-0.272,1.841-0.385,2.465l-0.399,2.241
		H57.386z"/>
	<path fill="#231F20" d="M66.622,8.672v8.756c0,0.752,0.031,1.601,0.063,2.321h-1.809l-0.112-0.881h-0.031
		c-0.288,0.545-0.913,1.009-1.633,1.009c-1.665,0-2.434-1.841-2.434-4.034c0-2.721,1.185-4.049,2.514-4.049
		c0.688,0,1.12,0.336,1.312,0.784h0.031V8.672H66.622z M64.524,14.931c0-0.144,0-0.304-0.016-0.464
		c-0.08-0.48-0.336-0.912-0.752-0.912c-0.736,0-1.009,1.072-1.009,2.337c0,1.488,0.4,2.272,0.992,2.272
		c0.257,0,0.561-0.144,0.721-0.688c0.048-0.111,0.063-0.288,0.063-0.479V14.931z"/>
	<path fill="#231F20" d="M73.784,15.812c0,3.265-1.809,4.065-2.993,4.065c-1.872,0-2.993-1.473-2.993-4.018
		c0-2.817,1.473-4.065,3.025-4.065C72.664,11.794,73.784,13.347,73.784,15.812z M69.879,15.812c0,1.344,0.208,2.465,0.961,2.465
		c0.672,0,0.848-1.312,0.848-2.465c0-1.073-0.176-2.434-0.88-2.434C70.039,13.378,69.879,14.738,69.879,15.812z"/>
	<path fill="#231F20" d="M74.887,19.749c0.032-0.688,0.064-1.569,0.064-2.321V8.672h2.097v4.034h0.032
		c0.384-0.561,0.88-0.912,1.632-0.912c1.521,0,2.209,1.712,2.209,3.825c0,2.737-1.088,4.258-2.545,4.258
		c-0.656,0-1.12-0.272-1.536-1.057h-0.049l-0.111,0.929H74.887z M77.048,16.947c0,0.192,0.032,0.385,0.08,0.497
		c0.176,0.56,0.464,0.72,0.72,0.72c0.704,0,0.992-0.88,0.992-2.385c0-1.345-0.304-2.225-1.008-2.225c-0.32,0-0.593,0.336-0.704,0.72
		c-0.048,0.128-0.08,0.336-0.08,0.48V16.947z"/>
	<path fill="#231F20" d="M83.84,16.579c0.031,1.217,0.736,1.665,1.664,1.665c0.593,0,1.121-0.128,1.488-0.256l0.289,1.505
		c-0.545,0.208-1.361,0.352-2.161,0.352c-2.129,0-3.298-1.408-3.298-3.857c0-2.625,1.361-4.193,3.138-4.193
		c1.681,0,2.657,1.328,2.657,3.697c0,0.561-0.017,0.864-0.064,1.088H83.84z M85.712,15.106c0-1.008-0.256-1.792-0.88-1.792
		c-0.688,0-0.961,1.008-0.977,1.792H85.712z"/>
	<path fill="#231F20" d="M55.049,32.749L53.208,21.96h2.177l0.528,4.307c0.145,1.232,0.24,2.465,0.368,3.777h0.048
		c0.145-1.329,0.385-2.497,0.608-3.794l0.769-4.29h1.696l0.721,4.258c0.192,1.217,0.384,2.417,0.512,3.826h0.032
		c0.145-1.409,0.272-2.562,0.416-3.81l0.528-4.274h2.049l-1.904,10.789h-2.161l-0.641-3.538c-0.176-0.992-0.336-2.225-0.479-3.537
		h-0.032c-0.192,1.297-0.368,2.497-0.593,3.554l-0.72,3.521H55.049z"/>
	<path fill="#231F20" d="M65.931,29.579c0.031,1.217,0.736,1.665,1.664,1.665c0.593,0,1.121-0.128,1.489-0.256l0.288,1.505
		c-0.545,0.208-1.361,0.352-2.161,0.352c-2.129,0-3.298-1.408-3.298-3.857c0-2.625,1.361-4.193,3.138-4.193
		c1.681,0,2.657,1.328,2.657,3.697c0,0.561-0.017,0.864-0.064,1.088H65.931z M67.803,28.106c0-1.008-0.256-1.792-0.88-1.792
		c-0.688,0-0.961,1.008-0.977,1.792H67.803z"/>
	<path fill="#231F20" d="M70.829,32.749c0.032-0.688,0.064-1.569,0.064-2.321v-8.756h2.097v4.034h0.032
		c0.384-0.561,0.88-0.912,1.632-0.912c1.521,0,2.209,1.712,2.209,3.825c0,2.737-1.088,4.258-2.545,4.258
		c-0.656,0-1.12-0.272-1.536-1.057h-0.048l-0.112,0.929H70.829z M72.99,29.947c0,0.192,0.032,0.385,0.08,0.497
		c0.176,0.56,0.464,0.72,0.72,0.72c0.704,0,0.993-0.88,0.993-2.385c0-1.345-0.305-2.225-1.009-2.225c-0.32,0-0.593,0.336-0.704,0.72
		c-0.048,0.128-0.08,0.336-0.08,0.48V29.947z"/>
	<path fill="#231F20" d="M53.929,35.12c0.592-0.128,1.393-0.208,2.192-0.208c1.249,0,2.225,0.177,2.93,0.833
		c0.64,0.56,0.928,1.456,0.928,2.368c0,1.169-0.352,1.985-0.912,2.594c-0.672,0.704-1.761,1.024-2.625,1.024
		c-0.145,0-0.288,0-0.416,0v4.018h-2.097V35.12z M56.025,40.019c0.096,0.032,0.208,0.032,0.336,0.032
		c1.057,0,1.537-0.753,1.537-1.761c0-0.944-0.385-1.681-1.361-1.681c-0.191,0-0.384,0.031-0.512,0.08V40.019z"/>
	<path fill="#231F20" d="M60.927,34.672h2.097v11.077h-2.097V34.672z"/>
	<path fill="#231F20" d="M68.032,45.749L67.92,44.98h-0.032c-0.433,0.608-1.04,0.896-1.729,0.896c-1.185,0-2.065-0.992-2.065-2.385
		c0-2.049,1.81-2.897,3.586-2.913v-0.177c0-0.608-0.368-1.056-1.104-1.056c-0.624,0-1.137,0.159-1.601,0.447l-0.384-1.408
		c0.432-0.256,1.344-0.592,2.433-0.592c2.385,0,2.769,1.664,2.769,3.249v2.913c0,0.624,0.032,1.265,0.129,1.793H68.032z
		 M67.743,41.939c-0.704,0.016-1.664,0.24-1.664,1.328c0,0.784,0.432,1.072,0.752,1.072c0.336,0,0.721-0.208,0.864-0.672
		c0.032-0.112,0.048-0.24,0.048-0.368V41.939z"/>
	<path fill="#231F20" d="M73.653,35.809v2.113h1.537v1.488h-1.537v3.569c0,0.912,0.384,1.137,0.801,1.137
		c0.208,0,0.368-0.016,0.544-0.048l0.016,1.633c-0.288,0.08-0.72,0.144-1.28,0.144c-0.608,0-1.137-0.144-1.505-0.496
		c-0.432-0.416-0.672-1.009-0.672-2.241V39.41h-0.929v-1.488h0.929v-1.617L73.653,35.809z"/>
	<path fill="#231F20" d="M76.83,45.749V39.41h-1.057v-1.488h1.057v-0.32c0-0.881,0.176-1.696,0.8-2.337
		c0.465-0.48,1.137-0.721,1.873-0.721c0.544,0,0.961,0.08,1.265,0.177l-0.24,1.632c-0.16-0.063-0.384-0.096-0.64-0.096
		c-0.705,0-0.961,0.608-0.961,1.297v0.368h1.36v1.488h-1.36v6.339H76.83z"/>
	<path fill="#231F20" d="M86.768,41.812c0,3.265-1.809,4.065-2.993,4.065c-1.872,0-2.993-1.473-2.993-4.018
		c0-2.817,1.473-4.065,3.025-4.065C85.647,37.794,86.768,39.347,86.768,41.812z M82.862,41.812c0,1.344,0.208,2.465,0.961,2.465
		c0.672,0,0.848-1.312,0.848-2.465c0-1.073-0.176-2.434-0.88-2.434C83.022,39.378,82.862,40.738,82.862,41.812z"/>
	<path fill="#231F20" d="M87.935,40.274c0-0.784-0.032-1.633-0.064-2.353h1.825l0.111,1.136h0.048
		c0.353-0.832,0.977-1.264,1.553-1.264c0.208,0,0.32,0,0.448,0.031v2.081c-0.128-0.032-0.271-0.032-0.448-0.032
		c-0.448,0-1.04,0.305-1.28,1.121c-0.048,0.176-0.08,0.448-0.08,0.784v3.97h-2.112V40.274z"/>
	<path fill="#231F20" d="M92.726,40.274c0-0.864-0.048-1.616-0.064-2.353h1.825l0.096,0.912h0.032c0.4-0.592,1.057-1.04,1.873-1.04
		c0.88,0,1.44,0.399,1.713,1.056h0.031c0.192-0.304,0.48-0.592,0.784-0.784c0.32-0.176,0.705-0.271,1.104-0.271
		c1.393,0,2.018,1.104,2.018,2.993v4.962h-2.081v-4.61c0-0.896-0.096-1.616-0.736-1.616c-0.368,0-0.641,0.256-0.784,0.72
		c-0.032,0.112-0.064,0.337-0.064,0.545v4.962h-2.081v-4.914c0-0.561-0.063-1.312-0.72-1.312c-0.32,0-0.641,0.24-0.784,0.704
		c-0.048,0.145-0.08,0.368-0.08,0.592v4.931h-2.081V40.274z"/>
	<path fill="#231F20" d="M55.097,49.897h-1.904V47.96h5.922v1.938h-1.921v8.852h-2.097V49.897z"/>
	<path fill="#231F20" d="M60.955,55.579c0.031,1.217,0.736,1.665,1.664,1.665c0.593,0,1.121-0.128,1.488-0.256l0.289,1.505
		c-0.545,0.208-1.361,0.352-2.161,0.352c-2.129,0-3.298-1.408-3.298-3.857c0-2.625,1.361-4.193,3.138-4.193
		c1.681,0,2.657,1.328,2.657,3.697c0,0.561-0.017,0.864-0.064,1.088H60.955z M62.827,54.106c0-1.008-0.256-1.792-0.88-1.792
		c-0.688,0-0.961,1.008-0.977,1.792H62.827z"/>
	<path fill="#231F20" d="M69.428,58.749l-0.112-0.769h-0.032c-0.433,0.608-1.04,0.896-1.729,0.896c-1.185,0-2.065-0.992-2.065-2.385
		c0-2.049,1.81-2.897,3.586-2.913v-0.177c0-0.608-0.368-1.056-1.104-1.056c-0.624,0-1.137,0.159-1.601,0.447l-0.384-1.408
		c0.432-0.256,1.344-0.592,2.433-0.592c2.385,0,2.769,1.664,2.769,3.249v2.913c0,0.624,0.032,1.265,0.129,1.793H69.428z
		 M69.139,54.939c-0.704,0.016-1.664,0.24-1.664,1.328c0,0.784,0.432,1.072,0.752,1.072c0.336,0,0.721-0.208,0.864-0.672
		c0.032-0.112,0.048-0.24,0.048-0.368V54.939z"/>
	<path fill="#231F20" d="M72.639,53.274c0-0.864-0.048-1.616-0.064-2.353h1.825l0.096,0.912h0.032c0.4-0.592,1.057-1.04,1.873-1.04
		c0.88,0,1.44,0.399,1.713,1.056h0.031c0.192-0.304,0.48-0.592,0.784-0.784c0.32-0.176,0.705-0.271,1.104-0.271
		c1.393,0,2.018,1.104,2.018,2.993v4.962H79.97v-4.61c0-0.896-0.096-1.616-0.736-1.616c-0.368,0-0.641,0.256-0.784,0.72
		c-0.032,0.112-0.064,0.337-0.064,0.545v4.962h-2.081v-4.914c0-0.561-0.063-1.312-0.72-1.312c-0.32,0-0.641,0.24-0.784,0.704
		c-0.048,0.145-0.08,0.368-0.08,0.592v4.931h-2.081V53.274z"/>
</g>
</svg>
